<?xml version="1.0" encoding="UTF-8"?><svg id="Ebene_1" xmlns="http://www.w3.org/2000/svg" viewBox="0 0 727.3 200"><defs><style>.cls-1{fill:#23272b;}.cls-2{fill:#e3a562;}</style></defs><path class="cls-1" d="M249.71,48.4h18.45l-5,35.15,35.18-35.15h23.76l-45,45.08,29.27,44.68h-20l-25.6-39.08-5.77,39.08h-18.8l13.51-89.76Z"/><path class="cls-1" d="M333,41.7h16.66l-6.6,45c2.52-2.21,5.28-4.13,8.22-5.74,2.44-1.23,5.14-1.85,7.87-1.82,4.26-.13,8.32,1.85,10.85,5.28,2.67,3.56,4,8.37,4,14.43-.02,1.68-.18,3.35-.48,5l-5.08,34.32h-16.67l4-28c.64-3.8,.97-7.64,1-11.49,.09-1.75-.51-3.47-1.68-4.78-1.17-1.21-2.81-1.86-4.49-1.78-5.63,0-9.2,5.19-10.71,15.58l-4.47,30.5h-16.8l14.38-96.5Z"/><path class="cls-1" d="M439.54,113.2h-39.78c1.05,8.34,5.2,12.51,12.44,12.51,4.97,0,9.23-2.33,12.78-7l11.9,6.16c-7.75,9.59-16.71,14.38-26.88,14.38-8.25,0-15-2.62-20.27-7.86-5.27-5.24-7.9-11.94-7.89-20.1-.15-8.47,3.09-16.65,9-22.73,5.48-6.09,13.31-9.53,21.5-9.47,8.38,0,15.05,2.83,20,8.48,4.95,5.65,7.35,14.2,7.2,25.63Zm-39-11.62h23.65c-.77-6.24-4.53-9.36-11.28-9.36-5.76,0-9.87,3.12-12.33,9.36h-.04Z"/><path class="cls-1" d="M463.12,131.58l-4.88,32.48h-16.65l12.24-83.74h17l-.62,4.11c2.64-1.61,5.41-2.98,8.29-4.11,2.61-.88,5.35-1.29,8.1-1.23,6.15-.08,11.98,2.76,15.7,7.66,4.15,5.1,6.22,11.64,6.22,19.62,0,9.16-2.74,16.95-8.22,23.38-5.48,6.43-12.03,9.64-19.65,9.64-5.71,0-11.55-2.6-17.53-7.81Zm14.35-7.44c3.93,.06,7.67-1.71,10.13-4.78,2.74-3.38,4.16-7.65,4-12,0-4.33-1.15-7.66-3.45-10-2.3-2.34-5.55-3.51-9.75-3.52-3.47,0-6.59,1.77-9.34,5.3-2.68,3.42-4.12,7.66-4.06,12.01-.11,3.43,1.15,6.76,3.49,9.27,2.2,2.43,5.34,3.78,8.62,3.72h.36Z"/><path class="cls-1" d="M557,80.73l-4,15.59c-1.96-.84-4.08-1.24-6.21-1.16-7.7,0-12.3,5.15-13.8,15.45l-4.14,27.55h-16.78l8.68-57.84h16.73l-.61,4.09c4.62-3.64,9.17-5.46,13.66-5.45,2.27,.03,4.5,.64,6.47,1.77Z"/><path class="cls-1" d="M564.57,80.32l-8.57,57.84h16.58l8.69-57.84h-16.7Z"/><path class="cls-2" d="M587.06,56.5c.09,2.92-.99,5.75-3,7.87-1.91,2.06-4.61,3.21-7.42,3.17h-.27c-2.9,.05-5.69-1.14-7.66-3.27-2.05-2.06-3.18-4.86-3.14-7.77-.03-2.81,1.12-5.51,3.18-7.43,4.25-4.07,10.96-4.07,15.21,0,2.03,1.93,3.15,4.63,3.1,7.43Z"/><g id="icon-color"><path class="cls-2" d="M207.14,95c-.09-32.95-26.87-59.6-59.82-59.51-31.7,.08-57.8,24.93-59.44,56.58,8.26-26.51,36.44-41.3,62.95-33.04,26.51,8.26,41.3,36.44,33.04,62.95-4.77,15.3-16.55,27.42-31.71,32.61,31.07-2.45,55.02-28.41,54.98-59.58Z"/><path class="cls-2" d="M192.67,93.1c-.1-23.91-19.55-43.21-43.46-43.12-22.96,.09-41.85,18.09-43.06,41.02,5.99-19.23,26.44-29.96,45.67-23.97,19.23,5.99,29.96,26.44,23.97,45.67-3.46,11.1-12,19.88-23,23.65,22.55-1.78,39.93-20.63,39.88-43.25Z"/><circle class="cls-2" cx="142.69" cy="100.21" r="25.42"/></g></svg>