<?xml version="1.0" encoding="UTF-8"?><svg id="Ebene_1" xmlns="http://www.w3.org/2000/svg" viewBox="0 0 300 80"><defs><style>.cls-1{fill:#7b917c;}.cls-2{fill:#3d4d43;}</style></defs><g><path class="cls-2" d="M69.33,21.82l4.44-.6c.24,1.08,.36,2.26,.36,3.54,0,3.2-.75,6.84-2.25,10.92s-3.31,7.79-5.43,11.13c-2.12,3.34-4.38,6.16-6.78,8.46-2.4,2.3-4.42,3.45-6.06,3.45-3.52,0-5.28-2.76-5.28-8.28,0-2.64,.94-8.12,2.82-16.44-4.64,6.56-8.92,12.31-12.84,17.25-3.92,4.94-6.29,7.41-7.11,7.41s-1.56-.32-2.22-.96-.99-1.3-.99-1.98,.12-1.36,.36-2.04c1.72-5.16,2.85-10,3.39-14.52,.54-4.52,.81-8.57,.81-12.15s-.02-5.79-.06-6.63h4.68c.24,1.28,.36,3.27,.36,5.97s-.33,6.46-.99,11.28c-.66,4.82-1.47,9.29-2.43,13.41,3-3.84,9.2-12.28,18.6-25.32,1.08-1.56,1.95-2.59,2.61-3.09,.66-.5,1.46-.75,2.4-.75s1.41,.46,1.41,1.38c0,.36-.5,2.08-1.5,5.16-1,3.08-1.96,6.9-2.88,11.46-.92,4.56-1.38,8.02-1.38,10.38s.6,3.54,1.8,3.54c.84,0,1.88-.6,3.12-1.8,3.08-2.96,5.7-7.03,7.86-12.21,2.16-5.18,3.24-10.51,3.24-15.99,0-.88-.02-1.54-.06-1.98Z"/><path class="cls-2" d="M85.41,51.94l1.38,1.08c-1.24,1.72-2.94,3.15-5.1,4.29-2.16,1.14-4.26,1.71-6.3,1.71s-3.68-.6-4.92-1.8c-1.24-1.2-1.86-2.78-1.86-4.74,0-3.68,1.95-7.3,5.85-10.86,3.9-3.56,7.85-5.34,11.85-5.34,2.64,0,3.96,1.04,3.96,3.12s-1.39,4.34-4.17,6.54c-2.78,2.2-6.69,4.2-11.73,6,.36,.92,.92,1.64,1.68,2.16,.76,.52,1.54,.78,2.34,.78,1.72,0,4.06-.98,7.02-2.94Zm-11.34-1.8c3.24-1.12,6.02-2.52,8.34-4.2,2.32-1.68,3.48-3.22,3.48-4.62,0-.52-.2-.98-.6-1.38-.4-.4-.86-.6-1.38-.6-1.88,0-3.91,1.17-6.09,3.51-2.18,2.34-3.43,4.77-3.75,7.29Z"/><path class="cls-2" d="M102.03,42.52c1.92-1.96,3.61-3.31,5.07-4.05,1.46-.74,2.84-1.11,4.14-1.11s2.38,.45,3.24,1.35c.86,.9,1.29,2.07,1.29,3.51,0,3.72-1.56,7.63-4.68,11.73-3.12,4.1-6.48,6.15-10.08,6.15-1.08,0-2.1-.2-3.06-.6l1.44-2.64c.64,.16,1.14,.24,1.5,.24,2.44,0,4.66-1.36,6.66-4.08,2-2.72,3-5.4,3-8.04,0-.84-.27-1.53-.81-2.07s-1.23-.81-2.07-.81c-1.84,0-3.99,1.48-6.45,4.44s-4.61,6.82-6.45,11.58l-3.66-1.5c1.2-6.12,3.6-13.58,7.2-22.38,3.6-8.8,6.6-15.02,9-18.66l3.06,1.08c-2.64,4.92-5.45,11.02-8.43,18.3-2.98,7.28-4.73,12.22-5.25,14.82,1.64-2.88,3.42-5.3,5.34-7.26Z"/><path class="cls-1" d="M130.71,20.74c6.96,0,12.91,2.06,17.85,6.18,4.94,4.12,7.41,8.94,7.41,14.46s-1.68,9.88-5.04,13.08-7.62,4.76-12.78,4.68c-2.76-.04-4.96-.06-6.6-.06h-2.82c-1.16,0-1.74-.44-1.74-1.32,0-.32,.34-1.14,1.02-2.46,2.24-4.48,3.94-9.06,5.1-13.74-4.12,0-7.98-1.14-11.58-3.42-3.6-2.28-5.4-4.87-5.4-7.77s1.36-5.23,4.08-6.99c2.72-1.76,6.22-2.64,10.5-2.64Zm-.24,2.46c-2.64,0-4.72,.56-6.24,1.68-1.52,1.12-2.28,2.77-2.28,4.95s1.05,4.12,3.15,5.82c2.1,1.7,4.91,2.77,8.43,3.21,1.24-5.24,1.96-8.62,2.16-10.14l3.6,.36c0,2.48-.52,5.76-1.56,9.84,.32,0,2.18-.2,5.58-.6l.3,1.98c-.8,.28-3.02,.7-6.66,1.26-1.56,5.04-3.18,9.4-4.86,13.08,4,.32,7.33,.48,9.99,.48s4.77-.99,6.33-2.97c1.56-1.98,2.34-4.65,2.34-8.01,0-5.8-1.98-10.74-5.94-14.82-3.96-4.08-8.74-6.12-14.34-6.12Z"/><path class="cls-1" d="M175.17,51.94l1.38,1.08c-1.24,1.72-2.94,3.15-5.1,4.29-2.16,1.14-4.26,1.71-6.3,1.71s-3.68-.6-4.92-1.8c-1.24-1.2-1.86-2.78-1.86-4.74,0-3.68,1.95-7.3,5.85-10.86,3.9-3.56,7.85-5.34,11.85-5.34,2.64,0,3.96,1.04,3.96,3.12s-1.39,4.34-4.17,6.54c-2.78,2.2-6.69,4.2-11.73,6,.36,.92,.92,1.64,1.68,2.16,.76,.52,1.54,.78,2.34,.78,1.72,0,4.06-.98,7.02-2.94Zm-11.34-1.8c3.24-1.12,6.02-2.52,8.34-4.2,2.32-1.68,3.48-3.22,3.48-4.62,0-.52-.2-.98-.6-1.38-.4-.4-.86-.6-1.38-.6-1.88,0-3.91,1.17-6.09,3.51-2.18,2.34-3.43,4.77-3.75,7.29Z"/><path class="cls-1" d="M221.85,51.22l1.26,1.2c-2.28,4.08-4.9,6.12-7.86,6.12-1.2,0-2.13-.33-2.79-.99-.66-.66-.99-1.54-.99-2.64s.66-2.99,1.98-5.67c1.32-2.68,2.02-4.72,2.1-6.12,.04-.64-.15-1.16-.57-1.56s-.99-.6-1.71-.6-1.45,.17-2.19,.51c-.74,.34-1.46,.89-2.16,1.65-.7,.76-1.34,1.5-1.92,2.22-.58,.72-1.22,1.74-1.92,3.06-.7,1.32-1.29,2.42-1.77,3.3-.84,1.64-2.04,4.1-3.6,7.38l-3.6-1.26c0-.12,.66-2.38,1.98-6.78,1.32-4.4,1.98-7.02,1.98-7.86s-.2-1.45-.6-1.83c-.4-.38-.9-.57-1.5-.57-1.8,0-4.29,2.24-7.47,6.72-3.18,4.48-5.21,8.3-6.09,11.46l-3.42-1.14c.2-2.12,1.14-5.93,2.82-11.43,1.68-5.5,3.1-9.25,4.26-11.25l2.7,.96c-1.24,2.76-2.1,5.09-2.58,6.99-.48,1.9-.9,3.93-1.26,6.09,3.44-4.92,6.32-8.37,8.64-10.35,2.32-1.98,4.42-2.97,6.3-2.97,2.04,0,3.06,1.02,3.06,3.06,0,.8-.35,2.38-1.05,4.74-.7,2.36-1.25,4.22-1.65,5.58,5.52-8.88,10.46-13.32,14.82-13.32,1.08,0,1.94,.33,2.58,.99,.64,.66,.96,1.64,.96,2.94s-.75,3.45-2.25,6.45-2.25,4.89-2.25,5.67,.16,1.35,.48,1.71c.32,.36,.72,.54,1.2,.54,1.04,0,2.4-1,4.08-3Z"/><path class="cls-1" d="M241.65,41.2c1.04,1.72,1.56,3.62,1.56,5.7,0,3.24-1.12,6.13-3.36,8.67-2.24,2.54-4.88,3.81-7.92,3.81-2.32,0-4.13-.67-5.43-2.01-1.3-1.34-1.95-3.19-1.95-5.55,0-3.8,1.48-7.21,4.44-10.23,2.96-3.02,6.28-4.53,9.96-4.53,.68,0,1.16,.02,1.44,.06l.18,1.98c-3.2,0-5.86,.92-7.98,2.76-2.12,1.84-3.18,4.2-3.18,7.08,0,1.72,.42,3.11,1.26,4.17,.84,1.06,2.07,1.59,3.69,1.59s2.91-.72,3.87-2.16,1.44-3.13,1.44-5.07-.38-3.71-1.14-5.31l3.12-.96Z"/></g><path class="cls-1" d="M278.99,34.94c-.15-.42-.76-.41-.98-.02-1.17,2.1-3.44,3.5-6.02,3.46l-6.29-.09c-4.75-.07-8.82,2.96-10.25,7.21,0,0-.33,1.07-.47,2.46-.02,.01-.03,.02-.05,.03-3.54,2.27-5.92,6.21-5.98,10.72v.96c-.03,.8,.61,1.45,1.42,1.46,.8,.01,1.46-.62,1.47-1.42v-.96c.06-2.93,1.35-5.54,3.38-7.35,1.13,4.55,5.23,7.96,10.18,8.04h.06c7.99,.08,14.57-7.65,14.71-17.29,.04-2.56-.38-5-1.17-7.2Z"/></svg>