<?xml version="1.0" encoding="UTF-8"?>
<svg id="text-dark" xmlns="http://www.w3.org/2000/svg" viewBox="0 0 727.3 200">
  <defs>
    <style>
      .cls-1 {
        fill: #23272b;
      }

      .cls-2 {
        fill: #fabe7b;
      }
    </style>
  </defs>
  <g id="logo">
    <path class="cls-2" d="m207.14,95.25c-.05-32.95-26.81-59.62-59.76-59.57-31.91.05-57.92,25.14-59.5,56.64,6.36-20.43,25.4-35.28,47.92-35.31,27.76-.04,50.3,22.42,50.34,50.18.04,22.09-14.18,40.87-33.97,47.64,30.8-2.4,55.02-28.18,54.97-59.58Z"/>
    <path class="cls-2" d="m192.67,93.36c-.04-23.91-19.45-43.26-43.36-43.22-23.15.04-42.02,18.24-43.16,41.09,4.61-14.82,18.42-25.59,34.77-25.62,20.14-.03,36.49,16.27,36.52,36.41.03,16.02-10.29,29.65-24.65,34.56,22.34-1.74,39.92-20.44,39.88-43.23Z"/>
    <circle class="cls-2" cx="142.69" cy="100.47" r="25.42"/>
    <g>
      <path class="cls-1" d="m249.71,48.66h18.46l-5,35.15,35.17-35.15h23.76l-44.99,45.08,29.27,44.67h-20.02l-25.6-39.08-5.71,39.08h-18.8l13.47-89.76Z"/>
      <path class="cls-1" d="m439.54,113.46h-39.79c1.05,8.34,5.2,12.51,12.44,12.51,4.97,0,9.23-2.35,12.78-7.04l11.89,6.15c-7.75,9.62-16.7,14.42-26.87,14.42-8.25,0-15-2.62-20.27-7.86-5.26-5.24-7.9-11.94-7.9-20.1,0-8.84,3-16.42,8.99-22.73,5.99-6.31,13.16-9.47,21.5-9.47s15.05,2.83,20,8.48c4.94,5.65,7.35,14.2,7.21,25.63Zm-38.96-11.62h23.65c-.78-6.24-4.54-9.37-11.28-9.37-5.79,0-9.91,3.12-12.37,9.37Z"/>
      <path class="cls-1" d="m461.12,131.84l-4.88,32.48h-16.65l12.24-83.74h17l-.62,4.11c3.28-1.92,6.04-3.28,8.3-4.11,2.25-.82,4.95-1.23,8.09-1.23,6.33,0,11.56,2.55,15.71,7.66,4.14,5.1,6.21,11.64,6.21,19.62,0,9.16-2.74,16.95-8.22,23.38-5.48,6.43-12.03,9.64-19.65,9.64-5.71,0-11.55-2.6-17.53-7.8Zm14.35-7.44c4.06,0,7.43-1.59,10.13-4.79,2.69-3.19,4.04-7.2,4.04-12.03,0-4.33-1.15-7.67-3.46-10.01-2.3-2.35-5.55-3.52-9.75-3.52-3.47,0-6.58,1.77-9.34,5.3-2.76,3.53-4.14,7.55-4.14,12.06,0,3.69,1.16,6.78,3.49,9.27,2.33,2.48,5.2,3.73,8.62,3.73h.41Z"/>
      <path class="cls-1" d="m554.98,80.99l-4.03,15.59c-1.64-.77-3.71-1.16-6.22-1.16-7.7,0-12.3,5.15-13.8,15.45l-4.14,27.55h-16.73l8.68-57.83h16.73l-.61,4.09c4.62-3.64,9.18-5.46,13.66-5.46,2.15,0,4.3.59,6.45,1.78Z"/>
      <path class="cls-1" d="m562.57,80.58l-8.54,57.84h16.58l8.69-57.84h-16.73Z"/>
      <path class="cls-2" d="m585.06,56.76c0,3.14-1.01,5.76-3.04,7.87-2.03,2.11-4.5,3.17-7.42,3.17h-.27c-3.01,0-5.56-1.09-7.66-3.27-2.09-2.18-3.14-4.77-3.14-7.77s1.06-5.38,3.18-7.43c2.12-2.04,4.66-3.06,7.62-3.06s5.49,1.02,7.59,3.06c2.09,2.05,3.14,4.52,3.14,7.43Z"/>
      <path class="cls-1" d="m369.97,84.68c-2.71-3.55-6.33-5.33-10.85-5.33-2.88,0-5.5.61-7.87,1.82-2.37,1.21-5.11,3.12-8.21,5.73l5.61-38.25h-16.67l-13.36,89.76h16.86l4.47-30.5c1.51-10.38,5.08-15.58,10.7-15.58,1.88,0,3.37.59,4.49,1.78,1.12,1.19,1.68,2.78,1.68,4.79,0,3.37-.34,7.2-1.03,11.48l-4.03,28.03h16.71l5.08-34.32c.32-1.82.48-3.49.48-4.99,0-6.06-1.36-10.87-4.07-14.42Z"/>
    </g>
  </g>
</svg>